<?xml version="1.0" encoding="UTF-8"?><svg id="Layer_1" xmlns="http://www.w3.org/2000/svg" width="33.97603" height="37.48707" viewBox="0 0 33.97603 37.48707"><polygon points="18.27597 23.52746 13.07017 17.60577 12.22973 15.08591 14.72703 8.5306 17.24835 5.93499 25.14662 4.77264 30.63206 8.945 32.8548 14.1588 30.46529 21.17364 26.5289 23.35194 20.13892 24.63811 18.27597 23.52746" style="fill:#000; stroke:#000; stroke-miterlimit:10;"/><path d="M24.99797,5.34895l5.18685,3.94439,2.08435,4.88753-2.25405,6.61576-3.67711,2.03484-6.10012,1.22787-1.60733-.95841-5.07616-5.77313-.74285-2.22929,2.38732-6.26691,2.31304-2.38222,7.48605-1.10043ZM25.29439,4.19751l-8.30975,1.22207-2.72962,2.8112-2.60653,6.84297.93657,2.81044,5.33615,6.06955,2.11858,1.26285,6.68057-1.34442,4.19493-2.32177,2.5257-7.41324-2.36256-5.5408-5.78404-4.39885Z" style="fill:#000; stroke:#000; stroke-miterlimit:10;"/><polyline points="17.31033 5.86763 16.93891 11.08145 12.92314 17.74744" style="fill:#000; stroke:#000; stroke-miterlimit:10; stroke-width:1.5px;"/><polyline points="16.21055 11.08165 24.27631 14.21838 30.67139 9.00458" style="fill:#000; stroke:#000; stroke-miterlimit:10; stroke-width:1.5px;"/><polyline points="18.57318 23.62789 25.49772 20.94489 30.34609 20.94489" style="fill:#000; stroke:#000; stroke-miterlimit:10; stroke-width:1.5px;"/><line x1="24.27595" y1="14.21814" x2="25.49801" y2="21.67289" style="fill:#000; stroke:#000; stroke-miterlimit:10; stroke-width:1.5px;"/><path d="M20.36879,5.30508L15.00955,0l-7.47763.85228-.32784.33766c-.03098.04768-.07086.08664-.11782.12135-.02423.02967-.04912.05842-.08042.08278l-2.02545,2.08603-2.43653,6.3966.87553,2.6271,4.98806,5.67366,1.98033,1.18044,6.24479-1.25674,3.9213-2.17031,2.36095-6.92962-2.54603-3.69616ZM19.7124,15.22625l-3.4372,1.90214-5.70222,1.14776-1.50245-.89589-4.74502-5.39651-.69438-2.08387,2.23155-5.85815,2.16219-2.22683,6.42798-.78667,4.131,4.53935,3.23561,3.47452-2.10705,6.18415Z" style="fill:#000; stroke-width:0px;"/><g id="b"><g id="c"><path d="M18.21158,26.66724c.10713.10713.21425.21425.10713.32138,0,.10713-.10713.21425-.32138.21425h-2.03541c-.53563,0-1.07127,0-1.71403.10713h-1.1784c-.42851,0-.96414,0-1.39265.10713h-2.35679l-.10713.10713c-.10713.42851-.32138.85701-.42851,1.28552-.21425.53563-.42851,1.1784-.53563,1.71403-.21425.53563-.32138,1.07127-.53563,1.60691s-.32138,1.07127-.53563,1.60691c-.10713.42851-.21425.85702-.42851,1.28552-.10713.21426-.10713.42851-.21425.53563,0,.10713-.10713.21426-.32138.21426s-.21425-.10713-.32138-.21426c-.10713-.53563-.21425-.96414-.42851-1.49978-.32138-1.39265-.64276-2.67817-.96414-4.07082s-.64276-2.7853-1.07127-4.17795c-.32138-1.28552-.64276-2.67817-.96414-3.96371-.32138-1.39265-.64276-2.7853-1.07127-4.17795,0-.10713-.10713-.32138-.10713-.42851s0-.21425.10713-.32138.21425-.10713.32138,0c1.07127.64276,2.24967,1.28552,3.32094,1.92828,1.28552.74989,2.46392,1.39265,3.74944,2.14254,1.49978.85701,2.99955,1.71403,4.49933,2.57105s2.89243,1.71403,4.39221,2.57105c.21425.42851.32138.42851.53563.53563h0Z" style="fill:#fff; stroke-width:0px;"/><path d="M19.49711,26.34585c-.10713-.21425-.21425-.42851-.42851-.64276-.53563-.32138-1.07127-.64276-1.6069-.96414s-1.1784-.64276-1.82116-1.07127c-.85702-.53563-1.71403-1.07127-2.67817-1.6069-1.28552-.74989-2.46392-1.39265-3.74944-2.14254-.85702-.42851-1.6069-.96414-2.46392-1.39265-1.39265-.74989-2.67817-1.6069-4.07082-2.35679-.53563-.32138-1.07127-.42851-1.6069-.21425-.53563.21425-.85702.53563-.96414,1.07127,0,.07142-.03571.14284-.10713.21425v.21425h0c0,.21425.10713.32138.10713.53563.10713.64276.32138,1.28552.42851,1.82116.32138,1.39265.74989,2.89243,1.07127,4.28508.42851,1.6069.85702,3.21381,1.1784,4.82072.32138,1.49978.74989,2.99955,1.07127,4.49933.21425.96414.53563,2.03541.74989,2.99956.10713.21426.21425.42851.42851.64276.42851.42851.96414.53563,1.6069.32138.53563-.21426.85702-.53563,1.07127-1.07127.10713-.42851.32138-.85702.42851-1.28552.21425-.64276.42851-1.28552.64276-1.92828.10713-.42851.32138-.96414.42851-1.39265.21425-.53563.32138-1.07127.53563-1.6069.10713-.32138.21425-.74989.53563-.96414l.10713-.10713c.32138,0,.74989,0,1.07127-.10713.85702,0,1.6069-.10713,2.46392-.10713.96414,0,1.82116-.10713,2.7853-.10713.53563,0,1.07127,0,1.49978-.21425.32138-.10713.53563-.21425.74989-.42851.10713-.10713.21425-.32138.32138-.53563.42851-.32138.42851-.74989.21425-1.1784h0ZM17.99733,27.31h-2.03541c-.53563,0-1.07127,0-1.71403.10713h-1.1784c-.42851,0-.96414,0-1.39265.10713h-2.35679l-.10713.10713c-.10713.42851-.32138.85701-.42851,1.28552-.21425.53563-.42851,1.1784-.53563,1.71403-.21425.53563-.32138,1.07127-.53563,1.60691s-.32138,1.07127-.53563,1.60691c-.10713.42851-.21425.85702-.42851,1.28552-.10713.21426-.10713.42851-.21425.53563,0,.10713-.10713.21426-.32138.21426s-.21425-.10713-.32138-.21426c-.10713-.53563-.21425-.96414-.42851-1.49978-.32138-1.39265-.64276-2.67817-.96414-4.07082s-.64276-2.7853-1.07127-4.17795c-.32138-1.28552-.64276-2.67817-.96414-3.96371-.32138-1.39265-.64276-2.7853-1.07127-4.17795,0-.10713-.10713-.32138-.10713-.42851s0-.21425.10713-.32138.21425-.10713.32138,0c1.07127.64276,2.24967,1.28552,3.32094,1.92828,1.28552.74989,2.46392,1.39265,3.74944,2.14254,1.49978.85701,2.99955,1.71403,4.49933,2.57105s2.89243,1.71403,4.39221,2.57105c.10713.10713.32138.21425.42851.21425.10713.10713.21425.21425.10713.32138.10713.42851,0,.53563-.21425.53563v.00002Z" style="fill:#020202; stroke-width:0px;"/></g></g><polygon points="8.8462 17.16024 4.43159 12.13855 3.71888 10.00165 5.83663 4.44263 7.97476 2.2415 14.67264 1.25581 19.00677 5.12896 21.20933 9.21544 19.18298 15.16416 15.84485 17.0114 10.42602 18.1021 8.8462 17.16024" style="fill:#2878bd; stroke-width:0px;"/><path d="M19.65983,5.58084L14.79794.76808l-6.78369.77318-.29742.30633c-.0281.04325-.06428.0786-.10688.11009-.02198.02691-.04456.053-.07296.0751l-1.83749,1.89244-2.21041,5.80298.79428,2.3833,4.52515,5.14713,1.79655,1.0709,5.66526-1.14011,3.5574-1.9689,2.14185-6.28653-2.30976-3.35315ZM19.06436,14.58131l-3.11822,1.72561-5.17304,1.04125-1.36302-.81275-4.30468-4.8957-.62994-1.89048,2.02445-5.3145,1.96154-2.02018,5.83145-.71367,3.74764,4.11809,2.93533,3.15208-1.91151,5.61025Z" style="fill:#fff; stroke-width:0px;"/><polyline points="8.34167 2.109 7.97548 6.34266 4.69613 11.78622" style="fill:none; stroke:#fff; stroke-miterlimit:10; stroke-width:1.5px;"/><polyline points="7.35781 6.34283 14.19774 9.00284 18.76191 5.26499" style="fill:none; stroke:#fff; stroke-miterlimit:10; stroke-width:1.5px;"/><polyline points="9.36137 16.98229 15.23352 14.70705 19.22442 14.85542" style="fill:none; stroke:#fff; stroke-miterlimit:10; stroke-width:1.5px;"/><line x1="14.19743" y1="9.00264" x2="15.23376" y2="15.32441" style="fill:none; stroke:#fff; stroke-miterlimit:10; stroke-width:1.5px;"/><polygon points="18.41002 23.02957 13.49808 17.44215 12.70508 15.06453 15.06141 8.87924 17.44042 6.43015 24.89285 5.33341 30.06866 9.27025 32.16593 14.18974 29.9113 20.80862 26.19711 22.86397 20.16782 24.07753 18.41002 23.02957" style="fill:#f2c167; stroke-width:0px;"/><path d="M24.75259,5.87719l4.89407,3.72174,1.9667,4.61164-2.12681,6.24232-3.46955,1.91998-5.75579,1.15856-1.5166-.90431-4.78962-5.44725-.70092-2.10345,2.25256-5.91316,2.18248-2.24775,7.06349-1.03831ZM25.03228,4.79074l-7.84069,1.15309-2.57554,2.65251-2.4594,6.45671.88371,2.6518,5.03495,5.72694,1.99899,1.19157,6.30347-1.26853,3.95814-2.19071,2.38313-6.99478-2.2292-5.22804-5.45755-4.15055Z" style="fill:#fff; stroke-width:0px;"/><polyline points="17.4989 6.36659 17.14844 11.2861 13.35934 17.57582" style="fill:none; stroke:#fff; stroke-miterlimit:10; stroke-width:1.5px;"/><polyline points="16.46119 11.28629 24.07167 14.24597 30.10577 9.32647" style="fill:none; stroke:#fff; stroke-miterlimit:10; stroke-width:1.5px;"/><polyline points="18.69046 23.12434 25.22414 20.59279 29.79883 20.59279" style="fill:none; stroke:#fff; stroke-miterlimit:10; stroke-width:1.5px;"/><line x1="24.07133" y1="14.24574" x2="25.22441" y2="21.27969" style="fill:none; stroke:#fff; stroke-miterlimit:10; stroke-width:1.5px;"/><circle cx="13.71438" cy="16.20778" r="4.87069" style="fill:#1b8a00; stroke:#fff; stroke-miterlimit:10.00493; stroke-width:1.00049px;"/><path d="M12.06284,15.587h.76403c.0955,0,.19101,0,.19101-.19101v-1.52806c0-.0955,0-.19101.19101-.19101h1.05054c.0955,0,.19101,0,.19101.19101v1.52806c0,.0955,0,.19101.19101.19101h1.52806c.06367,0,.0955.03183.0955.0955v1.14604c0,.06367-.03183.0955-.0955.0955h-1.52806c-.0955,0-.19101,0-.19101.0955v1.52806c0,.0955,0,.19101-.19101.19101h-1.05054c-.0955,0-.19101,0-.19101-.19101v-1.43255c0-.12734-.06367-.19101-.19101-.19101h-1.52806c-.0955,0-.19101,0-.0955-.0955v-1.14604c0-.06367.03183-.0955.0955-.0955h.76403Z" style="fill:#fff; stroke-width:0px;"/></svg>